# xmcd
#
# Track frame offsets:
#	150
#	53676
#	82916
#	139198
#	174726
#
# Disc length: 2883 seconds
#
# Revision: 1
# Processed by: cddbd v1.5.2PL0 Copyright (c) Steve Scherf et al.
# Submitted via: audiograbber 1.83.01
#
DISCID=390b4105
DTITLE=Jean Paul Bourelly - Kiss the Sky
DYEAR=1900
DGENRE=
TTITLE0=Nu Afro
TTITLE1=Funk GRV Inventions
TTITLE2=Machine
TTITLE3=Bone in your Jelly Back
TTITLE4=Muddy
EXTD=
EXTT0=
EXTT1=
EXTT2=
EXTT3=
EXTT4=
PLAYORDER=
